<?xml version="1.0" standalone="no"?>
<!DOCTYPE svg PUBLIC "-//W3C//DTD SVG 20010904//EN"
 "http://www.w3.org/TR/2001/REC-SVG-20010904/DTD/svg10.dtd">
<svg version="1.0" xmlns="http://www.w3.org/2000/svg"
 width="1920.000000pt" height="1920.000000pt" viewBox="0 0 1920.000000 1920.000000"
 preserveAspectRatio="xMidYMid meet">
<metadata>
Created by potrace 1.16, written by Peter Selinger 2001-2019
</metadata>
<g transform="translate(0.000000,1920.000000) scale(0.100000,-0.100000)"
fill="#EB8028" stroke="none">
<path d="M9035 17474 c-407 -30 -732 -92 -1040 -197 -764 -261 -1431 -767
-1864 -1412 -308 -459 -456 -882 -477 -1365 -6 -130 9 -468 22 -512 4 -13 37
-1 197 77 1288 622 2540 955 3592 955 426 0 837 -58 1160 -165 132 -43 333
-131 323 -141 -3 -3 -66 2 -139 10 -655 76 -1467 23 -2249 -145 -661 -142
-1332 -375 -1950 -678 -644 -314 -1439 -982 -2161 -1817 -102 -117 -119 -148
-126 -224 -9 -100 11 -139 154 -295 143 -156 178 -178 278 -179 91 0 143 30
219 122 254 314 635 712 851 891 90 74 303 238 331 254 6 4 44 -36 87 -91 84
-108 294 -318 402 -403 418 -327 897 -516 1480 -584 151 -17 503 -20 656 -5
535 54 1073 224 1534 486 214 121 302 180 560 373 435 326 798 536 1210 698
693 273 1383 351 2060 233 142 -24 179 -33 304 -70 57 -17 105 -29 107 -28 9
9 -163 403 -263 603 -483 964 -1160 1819 -1927 2433 -804 644 -1763 1050
-2733 1156 -138 16 -499 28 -598 20z"/>
<path d="M3168 10932 c-218 -219 -340 -355 -523 -582 -784 -976 -1290 -2051
-1465 -3110 -59 -360 -64 -431 -65 -875 0 -450 5 -529 61 -865 173 -1056 661
-1895 1464 -2516 298 -230 692 -439 1066 -563 627 -208 1241 -226 1749 -50
139 48 290 111 427 179 l108 54 -73 65 c-1444 1306 -2352 2702 -2552 3926 -36
220 -49 662 -18 631 3 -3 18 -54 34 -113 51 -200 150 -479 274 -778 50 -122
228 -487 311 -637 278 -509 615 -995 993 -1433 259 -301 633 -677 871 -876
490 -410 1302 -839 2220 -1174 240 -88 309 -107 355 -100 120 20 169 71 271
285 85 179 93 224 50 315 -39 85 -84 116 -237 164 -370 115 -711 251 -1011
403 -135 68 -410 227 -437 253 -12 12 -8 24 26 82 168 283 267 566 330 938 26
157 26 619 0 785 -114 717 -407 1317 -920 1880 -272 299 -563 531 -992 790
-410 248 -694 467 -995 769 -257 258 -430 474 -608 761 -95 154 -239 442 -302
605 -104 268 -182 583 -205 822 -8 80 -16 147 -18 149 -2 2 -87 -81 -189 -184z"/>
<path d="M15570 10940 c-74 -10 -102 -22 -150 -66 -85 -77 -99 -139 -66 -306
40 -199 85 -485 96 -603 6 -60 15 -164 22 -230 13 -141 16 -597 5 -706 l-8
-76 -222 -6 c-249 -6 -368 -21 -574 -72 -1051 -260 -1937 -1212 -2253 -2420
-89 -343 -120 -558 -140 -960 -32 -648 -134 -1150 -340 -1670 -17 -44 -74
-165 -125 -270 -281 -575 -704 -1073 -1173 -1382 -46 -30 -82 -56 -80 -58 17
-17 405 -128 646 -185 591 -138 1162 -204 1772 -203 932 1 1752 170 2527 521
466 211 988 556 1349 893 717 668 1152 1545 1225 2469 15 188 6 657 -15 800
-73 492 -220 912 -443 1268 -69 108 -145 209 -242 320 -139 159 -574 504 -592
470 -3 -7 -23 -80 -44 -163 -325 -1299 -805 -2390 -1403 -3187 -159 -212 -254
-321 -451 -519 -254 -253 -464 -417 -706 -552 -91 -51 -205 -102 -205 -93 0 2
61 64 136 138 933 914 1687 2310 2033 3759 59 246 96 545 111 911 20 458 -19
1098 -101 1656 -56 382 -64 409 -134 470 -62 55 -92 62 -254 61 -80 -1 -171
-5 -201 -9z"/>
</g>
</svg>
